<svg width="498" height="200" viewBox="0 0 498 200" fill="none" xmlns="http://www.w3.org/2000/svg">
<rect width="498" height="200" fill="white"/>
<mask id="mask0_1_2" style="mask-type:alpha" maskUnits="userSpaceOnUse" x="92" y="86" width="25" height="24">
<rect x="92.695" y="86" width="24" height="24" fill="#D9D9D9"/>
</mask>
<g mask="url(#mask0_1_2)">
<path d="M99.095 105.429L97.695 104.01L103.295 98.3377L97.695 92.6649L99.095 91.2467L104.695 96.9195L110.295 91.2467L111.695 92.6649L106.095 98.3377L111.695 104.01L110.295 105.429L104.695 99.7558L99.095 105.429Z" fill="#1C1B1F"/>
</g>
<path d="M90.9773 113.095V121.822H89.9545L85.1989 114.97H85.1136V121.822H84.0568V113.095H85.0795L89.8523 119.964H89.9375V113.095H90.9773ZM95.6999 121.959C95.0692 121.959 94.5252 121.819 94.0678 121.541C93.6133 121.26 93.2624 120.868 93.0153 120.365C92.771 119.859 92.6488 119.271 92.6488 118.601C92.6488 117.93 92.771 117.339 93.0153 116.828C93.2624 116.314 93.6062 115.913 94.0465 115.626C94.4897 115.337 95.0067 115.192 95.5977 115.192C95.9386 115.192 96.2752 115.248 96.6076 115.362C96.94 115.476 97.2425 115.66 97.5153 115.916C97.788 116.169 98.0053 116.504 98.1673 116.922C98.3292 117.339 98.4102 117.854 98.4102 118.464V118.89H93.3647V118.021H97.3874C97.3874 117.652 97.3136 117.322 97.1658 117.033C97.021 116.743 96.8136 116.514 96.5437 116.346C96.2766 116.179 95.9613 116.095 95.5977 116.095C95.1971 116.095 94.8505 116.194 94.5579 116.393C94.2681 116.589 94.0451 116.845 93.8888 117.16C93.7326 117.476 93.6545 117.814 93.6545 118.175V118.754C93.6545 119.248 93.7397 119.667 93.9102 120.011C94.0835 120.352 94.3235 120.612 94.6303 120.791C94.9371 120.967 95.2937 121.055 95.6999 121.055C95.9641 121.055 96.2028 121.018 96.4158 120.944C96.6317 120.868 96.8178 120.754 96.9741 120.604C97.1303 120.45 97.2511 120.26 97.3363 120.033L98.3079 120.305C98.2056 120.635 98.0337 120.925 97.7923 121.175C97.5508 121.422 97.2525 121.615 96.8974 121.754C96.5423 121.89 96.1431 121.959 95.6999 121.959ZM102.582 124.413C102.096 124.413 101.679 124.351 101.329 124.226C100.98 124.104 100.689 123.942 100.456 123.74C100.225 123.541 100.042 123.328 99.9059 123.101L100.707 122.538C100.798 122.658 100.913 122.794 101.052 122.947C101.191 123.104 101.382 123.238 101.623 123.352C101.868 123.469 102.187 123.527 102.582 123.527C103.11 123.527 103.547 123.399 103.89 123.143C104.234 122.888 104.406 122.487 104.406 121.942V120.612H104.321C104.247 120.731 104.142 120.879 104.005 121.055C103.872 121.229 103.679 121.383 103.426 121.52C103.176 121.653 102.838 121.72 102.412 121.72C101.883 121.72 101.409 121.595 100.988 121.345C100.571 121.095 100.24 120.731 99.9954 120.254C99.7539 119.777 99.6332 119.197 99.6332 118.515C99.6332 117.845 99.7511 117.261 99.9869 116.764C100.223 116.264 100.551 115.878 100.971 115.605C101.392 115.329 101.877 115.192 102.429 115.192C102.855 115.192 103.193 115.263 103.443 115.405C103.696 115.544 103.889 115.703 104.022 115.882C104.159 116.058 104.264 116.203 104.338 116.317H104.44V115.277H105.412V122.01C105.412 122.572 105.284 123.03 105.028 123.382C104.775 123.737 104.434 123.997 104.005 124.162C103.579 124.329 103.105 124.413 102.582 124.413ZM102.548 120.817C102.951 120.817 103.292 120.724 103.571 120.54C103.849 120.355 104.061 120.089 104.206 119.743C104.35 119.396 104.423 118.981 104.423 118.498C104.423 118.027 104.352 117.611 104.21 117.25C104.068 116.889 103.858 116.606 103.579 116.402C103.301 116.197 102.957 116.095 102.548 116.095C102.122 116.095 101.767 116.203 101.483 116.419C101.201 116.635 100.99 116.925 100.848 117.288C100.708 117.652 100.639 118.055 100.639 118.498C100.639 118.953 100.71 119.355 100.852 119.704C100.997 120.051 101.21 120.324 101.491 120.523C101.775 120.719 102.127 120.817 102.548 120.817ZM109.179 121.976C108.764 121.976 108.387 121.898 108.049 121.741C107.711 121.582 107.443 121.354 107.244 121.055C107.045 120.754 106.946 120.39 106.946 119.964C106.946 119.589 107.02 119.285 107.167 119.052C107.315 118.817 107.512 118.632 107.76 118.498C108.007 118.365 108.279 118.265 108.578 118.2C108.879 118.132 109.181 118.078 109.485 118.038C109.883 117.987 110.206 117.949 110.453 117.923C110.703 117.895 110.885 117.848 110.998 117.783C111.115 117.717 111.173 117.604 111.173 117.442V117.408C111.173 116.987 111.058 116.66 110.828 116.427C110.6 116.194 110.255 116.078 109.792 116.078C109.312 116.078 108.936 116.183 108.663 116.393C108.39 116.604 108.199 116.828 108.088 117.067L107.133 116.726C107.304 116.328 107.531 116.018 107.815 115.797C108.102 115.572 108.414 115.416 108.752 115.328C109.093 115.237 109.429 115.192 109.758 115.192C109.968 115.192 110.21 115.217 110.483 115.268C110.758 115.317 111.024 115.417 111.279 115.571C111.538 115.724 111.752 115.956 111.923 116.265C112.093 116.575 112.179 116.99 112.179 117.51V121.822H111.173V120.936H111.122C111.054 121.078 110.94 121.23 110.781 121.392C110.622 121.554 110.41 121.692 110.146 121.805C109.882 121.919 109.559 121.976 109.179 121.976ZM109.332 121.072C109.73 121.072 110.065 120.994 110.338 120.838C110.613 120.682 110.821 120.48 110.96 120.233C111.102 119.986 111.173 119.726 111.173 119.453V118.533C111.13 118.584 111.037 118.631 110.892 118.673C110.75 118.713 110.585 118.748 110.397 118.78C110.213 118.808 110.032 118.834 109.856 118.856C109.683 118.876 109.542 118.893 109.434 118.908C109.173 118.942 108.929 118.997 108.701 119.074C108.477 119.148 108.295 119.26 108.156 119.41C108.02 119.558 107.951 119.76 107.951 120.015C107.951 120.365 108.081 120.629 108.339 120.808C108.6 120.984 108.931 121.072 109.332 121.072ZM116.486 121.959C115.94 121.959 115.459 121.821 115.041 121.545C114.624 121.267 114.297 120.875 114.061 120.369C113.825 119.861 113.707 119.26 113.707 118.567C113.707 117.879 113.825 117.283 114.061 116.777C114.297 116.271 114.625 115.881 115.045 115.605C115.466 115.329 115.952 115.192 116.503 115.192C116.929 115.192 117.266 115.263 117.513 115.405C117.763 115.544 117.953 115.703 118.084 115.882C118.217 116.058 118.321 116.203 118.395 116.317H118.48V113.095H119.486V121.822H118.514V120.817H118.395C118.321 120.936 118.216 121.087 118.08 121.268C117.943 121.447 117.749 121.608 117.496 121.75C117.243 121.889 116.906 121.959 116.486 121.959ZM116.622 121.055C117.026 121.055 117.366 120.95 117.645 120.74C117.923 120.527 118.135 120.233 118.28 119.858C118.425 119.48 118.497 119.044 118.497 118.55C118.497 118.061 118.426 117.633 118.284 117.267C118.142 116.898 117.932 116.611 117.653 116.406C117.375 116.199 117.031 116.095 116.622 116.095C116.196 116.095 115.841 116.204 115.557 116.423C115.276 116.639 115.064 116.933 114.922 117.305C114.783 117.675 114.713 118.089 114.713 118.55C114.713 119.015 114.784 119.439 114.926 119.819C115.071 120.197 115.284 120.498 115.565 120.723C115.849 120.944 116.202 121.055 116.622 121.055ZM124.126 121.959C123.536 121.959 123.017 121.818 122.571 121.537C122.128 121.256 121.781 120.862 121.531 120.356C121.284 119.851 121.161 119.26 121.161 118.584C121.161 117.902 121.284 117.307 121.531 116.798C121.781 116.29 122.128 115.895 122.571 115.613C123.017 115.332 123.536 115.192 124.126 115.192C124.717 115.192 125.234 115.332 125.678 115.613C126.124 115.895 126.47 116.29 126.717 116.798C126.967 117.307 127.092 117.902 127.092 118.584C127.092 119.26 126.967 119.851 126.717 120.356C126.47 120.862 126.124 121.256 125.678 121.537C125.234 121.818 124.717 121.959 124.126 121.959ZM124.126 121.055C124.575 121.055 124.945 120.94 125.234 120.71C125.524 120.48 125.739 120.177 125.878 119.802C126.017 119.427 126.087 119.021 126.087 118.584C126.087 118.146 126.017 117.738 125.878 117.361C125.739 116.983 125.524 116.677 125.234 116.444C124.945 116.212 124.575 116.095 124.126 116.095C123.678 116.095 123.308 116.212 123.018 116.444C122.729 116.677 122.514 116.983 122.375 117.361C122.236 117.738 122.166 118.146 122.166 118.584C122.166 119.021 122.236 119.427 122.375 119.802C122.514 120.177 122.729 120.48 123.018 120.71C123.308 120.94 123.678 121.055 124.126 121.055Z" fill="black"/>
<path d="M22.4148 120H21.3068L24.5114 111.273H25.6023L28.8068 120H27.6989L25.0909 112.653H25.0227L22.4148 120ZM22.8239 116.591H27.2898V117.528H22.8239V116.591ZM32.6889 120.136C32.0753 120.136 31.5469 119.991 31.1037 119.702C30.6605 119.412 30.3196 119.013 30.081 118.504C29.8423 117.996 29.723 117.415 29.723 116.761C29.723 116.097 29.8452 115.51 30.0895 115.001C30.3366 114.49 30.6804 114.091 31.1207 113.804C31.5639 113.514 32.081 113.369 32.6719 113.369C33.1321 113.369 33.5469 113.455 33.9162 113.625C34.2855 113.795 34.5881 114.034 34.8239 114.341C35.0597 114.648 35.206 115.006 35.2628 115.415H34.2571C34.1804 115.116 34.0099 114.852 33.7457 114.622C33.4844 114.389 33.1321 114.273 32.6889 114.273C32.2969 114.273 31.9531 114.375 31.6577 114.58C31.3651 114.781 31.1364 115.067 30.9716 115.436C30.8097 115.803 30.7287 116.233 30.7287 116.727C30.7287 117.233 30.8082 117.673 30.9673 118.048C31.1293 118.423 31.3565 118.714 31.6491 118.922C31.9446 119.129 32.2912 119.233 32.6889 119.233C32.9503 119.233 33.1875 119.188 33.4006 119.097C33.6136 119.006 33.794 118.875 33.9418 118.705C34.0895 118.534 34.1946 118.33 34.2571 118.091H35.2628C35.206 118.477 35.0653 118.825 34.8409 119.135C34.6193 119.442 34.3253 119.686 33.9588 119.868C33.5952 120.047 33.1719 120.136 32.6889 120.136ZM39.4773 120.136C38.8466 120.136 38.3026 119.997 37.8452 119.719C37.3906 119.438 37.0398 119.045 36.7926 118.543C36.5483 118.037 36.4261 117.449 36.4261 116.778C36.4261 116.108 36.5483 115.517 36.7926 115.006C37.0398 114.491 37.3835 114.091 37.8239 113.804C38.267 113.514 38.7841 113.369 39.375 113.369C39.7159 113.369 40.0526 113.426 40.3849 113.54C40.7173 113.653 41.0199 113.838 41.2926 114.094C41.5653 114.347 41.7827 114.682 41.9446 115.099C42.1065 115.517 42.1875 116.031 42.1875 116.642V117.068H37.142V116.199H41.1648C41.1648 115.83 41.0909 115.5 40.9432 115.21C40.7983 114.92 40.5909 114.692 40.321 114.524C40.054 114.357 39.7386 114.273 39.375 114.273C38.9744 114.273 38.6278 114.372 38.3352 114.571C38.0455 114.767 37.8224 115.023 37.6662 115.338C37.5099 115.653 37.4318 115.991 37.4318 116.352V116.932C37.4318 117.426 37.517 117.845 37.6875 118.189C37.8608 118.53 38.1009 118.79 38.4077 118.969C38.7145 119.145 39.071 119.233 39.4773 119.233C39.7415 119.233 39.9801 119.196 40.1932 119.122C40.4091 119.045 40.5952 118.932 40.7514 118.781C40.9077 118.628 41.0284 118.437 41.1136 118.21L42.0852 118.483C41.983 118.812 41.8111 119.102 41.5696 119.352C41.3281 119.599 41.0298 119.793 40.6747 119.932C40.3196 120.068 39.9205 120.136 39.4773 120.136ZM43.7173 120V113.455H44.723V120H43.7173ZM44.2287 112.364C44.0327 112.364 43.8636 112.297 43.7216 112.163C43.5824 112.03 43.5128 111.869 43.5128 111.682C43.5128 111.494 43.5824 111.334 43.7216 111.2C43.8636 111.067 44.0327 111 44.2287 111C44.4247 111 44.5923 111.067 44.7315 111.2C44.8736 111.334 44.9446 111.494 44.9446 111.682C44.9446 111.869 44.8736 112.03 44.7315 112.163C44.5923 112.297 44.4247 112.364 44.2287 112.364ZM49.4116 113.455V114.307H46.0195V113.455H49.4116ZM47.0082 111.886H48.0138V118.125C48.0138 118.409 48.055 118.622 48.1374 118.764C48.2227 118.903 48.3306 118.997 48.4613 119.045C48.5948 119.091 48.7354 119.114 48.8832 119.114C48.994 119.114 49.0849 119.108 49.1559 119.097C49.2269 119.082 49.2837 119.071 49.3263 119.062L49.5309 119.966C49.4627 119.991 49.3675 120.017 49.2454 120.043C49.1232 120.071 48.9684 120.085 48.7809 120.085C48.4968 120.085 48.2184 120.024 47.9457 119.902C47.6758 119.78 47.4513 119.594 47.2724 119.344C47.0962 119.094 47.0082 118.778 47.0082 118.398V111.886ZM53.5131 120.136C52.9222 120.136 52.4038 119.996 51.9577 119.714C51.5146 119.433 51.168 119.04 50.918 118.534C50.6708 118.028 50.5472 117.437 50.5472 116.761C50.5472 116.08 50.6708 115.484 50.918 114.976C51.168 114.467 51.5146 114.072 51.9577 113.791C52.4038 113.51 52.9222 113.369 53.5131 113.369C54.104 113.369 54.6211 113.51 55.0643 113.791C55.5103 114.072 55.8569 114.467 56.104 114.976C56.354 115.484 56.479 116.08 56.479 116.761C56.479 117.437 56.354 118.028 56.104 118.534C55.8569 119.04 55.5103 119.433 55.0643 119.714C54.6211 119.996 54.104 120.136 53.5131 120.136ZM53.5131 119.233C53.962 119.233 54.3313 119.118 54.6211 118.888C54.9109 118.658 55.1254 118.355 55.2646 117.98C55.4038 117.605 55.4734 117.199 55.4734 116.761C55.4734 116.324 55.4038 115.916 55.2646 115.538C55.1254 115.161 54.9109 114.855 54.6211 114.622C54.3313 114.389 53.962 114.273 53.5131 114.273C53.0643 114.273 52.695 114.389 52.4052 114.622C52.1154 114.855 51.9009 115.161 51.7617 115.538C51.6225 115.916 51.5529 116.324 51.5529 116.761C51.5529 117.199 51.6225 117.605 51.7617 117.98C51.9009 118.355 52.1154 118.658 52.4052 118.888C52.695 119.118 53.0643 119.233 53.5131 119.233Z" fill="black"/>
<mask id="mask1_1_2" style="mask-type:alpha" maskUnits="userSpaceOnUse" x="27" y="84" width="24" height="24">
<rect x="27" y="84" width="24" height="24" fill="#D9D9D9"/>
</mask>
<g mask="url(#mask1_1_2)">
<path d="M36.55 102.416L30.85 96.6416L32.275 95.198L36.55 99.5286L45.725 90.2344L47.15 91.6779L36.55 102.416Z" fill="#1C1B1F"/>
</g>
<mask id="mask2_1_2" style="mask-type:alpha" maskUnits="userSpaceOnUse" x="341" y="84" width="24" height="24">
<rect x="341" y="84" width="24" height="24" fill="#D9D9D9"/>
</mask>
<g mask="url(#mask2_1_2)">
<path d="M352 97.3506H346V95.3247H352V89.2467H354V95.3247H360V97.3506H354V103.429H352V97.3506Z" fill="#1C1B1F"/>
</g>
<path d="M326.615 88.2012C326.602 88.1686 326.596 88.1393 326.596 88.1133C326.596 88.0352 326.658 87.9961 326.781 87.9961H328.139C328.301 87.9961 328.402 88.0645 328.441 88.2012L331.977 99.5977L335.082 88.6016C335.121 88.4388 335.215 88.2988 335.365 88.1816C335.521 88.0579 335.694 87.9961 335.883 87.9961H336.576C336.765 87.9961 336.934 88.0579 337.084 88.1816C337.24 88.2988 337.338 88.4388 337.377 88.6016L340.463 99.5977L343.998 88.2012C344.037 88.071 344.138 88.0026 344.301 87.9961H345.658C345.821 87.9961 345.876 88.0645 345.824 88.2012L341.684 101.404C341.553 101.801 341.251 102 340.775 102H340.18C339.939 102 339.737 101.941 339.574 101.824C339.418 101.701 339.32 101.561 339.281 101.404L336.225 90.5156L333.178 101.404C333.139 101.567 333.038 101.707 332.875 101.824C332.719 101.941 332.52 102 332.279 102H331.684C331.215 102 330.912 101.801 330.775 101.404L326.615 88.2012Z" fill="black"/>
<path d="M322.68 119H321.572L324.777 110.273H325.868L329.072 119H327.964L325.357 111.653H325.288L322.68 119ZM323.089 115.591H327.555V116.528H323.089V115.591ZM332.955 119.136C332.341 119.136 331.813 118.991 331.369 118.702C330.926 118.412 330.585 118.013 330.347 117.504C330.108 116.996 329.989 116.415 329.989 115.761C329.989 115.097 330.111 114.51 330.355 114.001C330.602 113.49 330.946 113.091 331.386 112.804C331.83 112.514 332.347 112.369 332.938 112.369C333.398 112.369 333.812 112.455 334.182 112.625C334.551 112.795 334.854 113.034 335.089 113.341C335.325 113.648 335.472 114.006 335.528 114.415H334.523C334.446 114.116 334.276 113.852 334.011 113.622C333.75 113.389 333.398 113.273 332.955 113.273C332.563 113.273 332.219 113.375 331.923 113.58C331.631 113.781 331.402 114.067 331.237 114.436C331.075 114.803 330.994 115.233 330.994 115.727C330.994 116.233 331.074 116.673 331.233 117.048C331.395 117.423 331.622 117.714 331.915 117.922C332.21 118.129 332.557 118.233 332.955 118.233C333.216 118.233 333.453 118.188 333.666 118.097C333.879 118.006 334.06 117.875 334.207 117.705C334.355 117.534 334.46 117.33 334.523 117.091H335.528C335.472 117.477 335.331 117.825 335.107 118.135C334.885 118.442 334.591 118.686 334.224 118.868C333.861 119.047 333.438 119.136 332.955 119.136ZM339.743 119.136C339.112 119.136 338.568 118.997 338.111 118.719C337.656 118.438 337.305 118.045 337.058 117.543C336.814 117.037 336.692 116.449 336.692 115.778C336.692 115.108 336.814 114.517 337.058 114.006C337.305 113.491 337.649 113.091 338.089 112.804C338.533 112.514 339.05 112.369 339.641 112.369C339.982 112.369 340.318 112.426 340.651 112.54C340.983 112.653 341.286 112.838 341.558 113.094C341.831 113.347 342.048 113.682 342.21 114.099C342.372 114.517 342.453 115.031 342.453 115.642V116.068H337.408V115.199H341.43C341.43 114.83 341.357 114.5 341.209 114.21C341.064 113.92 340.857 113.692 340.587 113.524C340.32 113.357 340.004 113.273 339.641 113.273C339.24 113.273 338.893 113.372 338.601 113.571C338.311 113.767 338.088 114.023 337.932 114.338C337.776 114.653 337.697 114.991 337.697 115.352V115.932C337.697 116.426 337.783 116.845 337.953 117.189C338.126 117.53 338.366 117.79 338.673 117.969C338.98 118.145 339.337 118.233 339.743 118.233C340.007 118.233 340.246 118.196 340.459 118.122C340.675 118.045 340.861 117.932 341.017 117.781C341.173 117.628 341.294 117.437 341.379 117.21L342.351 117.483C342.249 117.812 342.077 118.102 341.835 118.352C341.594 118.599 341.295 118.793 340.94 118.932C340.585 119.068 340.186 119.136 339.743 119.136ZM343.983 119V112.455H344.989V119H343.983ZM344.494 111.364C344.298 111.364 344.129 111.297 343.987 111.163C343.848 111.03 343.778 110.869 343.778 110.682C343.778 110.494 343.848 110.334 343.987 110.2C344.129 110.067 344.298 110 344.494 110C344.69 110 344.858 110.067 344.997 110.2C345.139 110.334 345.21 110.494 345.21 110.682C345.21 110.869 345.139 111.03 344.997 111.163C344.858 111.297 344.69 111.364 344.494 111.364ZM349.677 112.455V113.307H346.285V112.455H349.677ZM347.274 110.886H348.279V117.125C348.279 117.409 348.321 117.622 348.403 117.764C348.488 117.903 348.596 117.997 348.727 118.045C348.86 118.091 349.001 118.114 349.149 118.114C349.26 118.114 349.35 118.108 349.422 118.097C349.493 118.082 349.549 118.071 349.592 118.062L349.797 118.966C349.728 118.991 349.633 119.017 349.511 119.043C349.389 119.071 349.234 119.085 349.047 119.085C348.762 119.085 348.484 119.024 348.211 118.902C347.941 118.78 347.717 118.594 347.538 118.344C347.362 118.094 347.274 117.778 347.274 117.398V110.886ZM353.779 119.136C353.188 119.136 352.669 118.996 352.223 118.714C351.78 118.433 351.434 118.04 351.184 117.534C350.936 117.028 350.813 116.437 350.813 115.761C350.813 115.08 350.936 114.484 351.184 113.976C351.434 113.467 351.78 113.072 352.223 112.791C352.669 112.51 353.188 112.369 353.779 112.369C354.37 112.369 354.887 112.51 355.33 112.791C355.776 113.072 356.123 113.467 356.37 113.976C356.62 114.484 356.745 115.08 356.745 115.761C356.745 116.437 356.62 117.028 356.37 117.534C356.123 118.04 355.776 118.433 355.33 118.714C354.887 118.996 354.37 119.136 353.779 119.136ZM353.779 118.233C354.228 118.233 354.597 118.118 354.887 117.888C355.176 117.658 355.391 117.355 355.53 116.98C355.669 116.605 355.739 116.199 355.739 115.761C355.739 115.324 355.669 114.916 355.53 114.538C355.391 114.161 355.176 113.855 354.887 113.622C354.597 113.389 354.228 113.273 353.779 113.273C353.33 113.273 352.961 113.389 352.671 113.622C352.381 113.855 352.167 114.161 352.027 114.538C351.888 114.916 351.819 115.324 351.819 115.761C351.819 116.199 351.888 116.605 352.027 116.98C352.167 117.355 352.381 117.658 352.671 117.888C352.961 118.118 353.33 118.233 353.779 118.233ZM305.301 134V125.273H308.25C308.934 125.273 309.494 125.396 309.929 125.643C310.366 125.888 310.69 126.219 310.9 126.636C311.111 127.054 311.216 127.52 311.216 128.034C311.216 128.548 311.111 129.016 310.9 129.436C310.693 129.857 310.372 130.192 309.937 130.442C309.503 130.689 308.946 130.812 308.267 130.812H306.153V129.875H308.233C308.702 129.875 309.078 129.794 309.362 129.632C309.646 129.47 309.852 129.251 309.98 128.976C310.111 128.697 310.176 128.384 310.176 128.034C310.176 127.685 310.111 127.372 309.98 127.097C309.852 126.821 309.645 126.605 309.358 126.449C309.071 126.29 308.69 126.21 308.216 126.21H306.358V134H305.301ZM314.708 134.153C314.293 134.153 313.917 134.075 313.579 133.919C313.241 133.76 312.972 133.531 312.773 133.233C312.574 132.932 312.475 132.568 312.475 132.142C312.475 131.767 312.549 131.463 312.697 131.23C312.844 130.994 313.042 130.81 313.289 130.676C313.536 130.543 313.809 130.443 314.107 130.378C314.408 130.31 314.711 130.256 315.015 130.216C315.412 130.165 315.735 130.126 315.982 130.101C316.232 130.072 316.414 130.026 316.528 129.96C316.644 129.895 316.702 129.781 316.702 129.619V129.585C316.702 129.165 316.587 128.838 316.357 128.605C316.13 128.372 315.785 128.256 315.322 128.256C314.841 128.256 314.465 128.361 314.192 128.571C313.92 128.781 313.728 129.006 313.617 129.244L312.662 128.903C312.833 128.506 313.06 128.196 313.344 127.974C313.631 127.75 313.944 127.594 314.282 127.506C314.623 127.415 314.958 127.369 315.287 127.369C315.498 127.369 315.739 127.395 316.012 127.446C316.287 127.494 316.553 127.595 316.809 127.749C317.067 127.902 317.282 128.134 317.452 128.443C317.623 128.753 317.708 129.168 317.708 129.688V134H316.702V133.114H316.651C316.583 133.256 316.469 133.408 316.31 133.57C316.151 133.732 315.939 133.869 315.675 133.983C315.411 134.097 315.089 134.153 314.708 134.153ZM314.861 133.25C315.259 133.25 315.594 133.172 315.867 133.016C316.143 132.859 316.35 132.658 316.489 132.411C316.631 132.163 316.702 131.903 316.702 131.631V130.71C316.66 130.761 316.566 130.808 316.421 130.851C316.279 130.891 316.114 130.926 315.927 130.957C315.742 130.986 315.562 131.011 315.385 131.034C315.212 131.054 315.072 131.071 314.964 131.085C314.702 131.119 314.458 131.175 314.231 131.251C314.006 131.325 313.824 131.437 313.685 131.588C313.549 131.736 313.481 131.937 313.481 132.193C313.481 132.543 313.61 132.807 313.868 132.986C314.13 133.162 314.461 133.25 314.861 133.25ZM319.544 134V127.455H320.515V128.443H320.583C320.703 128.119 320.919 127.857 321.231 127.655C321.544 127.453 321.896 127.352 322.288 127.352C322.362 127.352 322.454 127.354 322.565 127.357C322.676 127.359 322.759 127.364 322.816 127.369V128.392C322.782 128.384 322.704 128.371 322.582 128.354C322.463 128.334 322.336 128.324 322.203 128.324C321.884 128.324 321.6 128.391 321.35 128.524C321.103 128.655 320.907 128.837 320.762 129.07C320.62 129.3 320.549 129.562 320.549 129.858V134H319.544ZM326.468 134.136C325.855 134.136 325.326 133.991 324.883 133.702C324.44 133.412 324.099 133.013 323.86 132.504C323.622 131.996 323.502 131.415 323.502 130.761C323.502 130.097 323.624 129.51 323.869 129.001C324.116 128.49 324.46 128.091 324.9 127.804C325.343 127.514 325.86 127.369 326.451 127.369C326.911 127.369 327.326 127.455 327.695 127.625C328.065 127.795 328.367 128.034 328.603 128.341C328.839 128.648 328.985 129.006 329.042 129.415H328.036C327.96 129.116 327.789 128.852 327.525 128.622C327.264 128.389 326.911 128.273 326.468 128.273C326.076 128.273 325.732 128.375 325.437 128.58C325.144 128.781 324.916 129.067 324.751 129.436C324.589 129.803 324.508 130.233 324.508 130.727C324.508 131.233 324.588 131.673 324.747 132.048C324.909 132.423 325.136 132.714 325.428 132.922C325.724 133.129 326.07 133.233 326.468 133.233C326.73 133.233 326.967 133.188 327.18 133.097C327.393 133.006 327.573 132.875 327.721 132.705C327.869 132.534 327.974 132.33 328.036 132.091H329.042C328.985 132.477 328.845 132.825 328.62 133.135C328.399 133.442 328.105 133.686 327.738 133.868C327.374 134.047 326.951 134.136 326.468 134.136ZM330.512 134V127.455H331.518V134H330.512ZM331.024 126.364C330.828 126.364 330.659 126.297 330.517 126.163C330.377 126.03 330.308 125.869 330.308 125.682C330.308 125.494 330.377 125.334 330.517 125.2C330.659 125.067 330.828 125 331.024 125C331.22 125 331.387 125.067 331.526 125.2C331.669 125.334 331.74 125.494 331.74 125.682C331.74 125.869 331.669 126.03 331.526 126.163C331.387 126.297 331.22 126.364 331.024 126.364ZM335.286 134.153C334.871 134.153 334.495 134.075 334.157 133.919C333.819 133.76 333.55 133.531 333.351 133.233C333.153 132.932 333.053 132.568 333.053 132.142C333.053 131.767 333.127 131.463 333.275 131.23C333.422 130.994 333.62 130.81 333.867 130.676C334.114 130.543 334.387 130.443 334.685 130.378C334.986 130.31 335.289 130.256 335.593 130.216C335.991 130.165 336.313 130.126 336.56 130.101C336.81 130.072 336.992 130.026 337.106 129.96C337.222 129.895 337.28 129.781 337.28 129.619V129.585C337.28 129.165 337.165 128.838 336.935 128.605C336.708 128.372 336.363 128.256 335.9 128.256C335.42 128.256 335.043 128.361 334.77 128.571C334.498 128.781 334.306 129.006 334.195 129.244L333.241 128.903C333.411 128.506 333.638 128.196 333.922 127.974C334.209 127.75 334.522 127.594 334.86 127.506C335.201 127.415 335.536 127.369 335.866 127.369C336.076 127.369 336.317 127.395 336.59 127.446C336.866 127.494 337.131 127.595 337.387 127.749C337.645 127.902 337.86 128.134 338.03 128.443C338.201 128.753 338.286 129.168 338.286 129.688V134H337.28V133.114H337.229C337.161 133.256 337.047 133.408 336.888 133.57C336.729 133.732 336.518 133.869 336.253 133.983C335.989 134.097 335.667 134.153 335.286 134.153ZM335.439 133.25C335.837 133.25 336.172 133.172 336.445 133.016C336.721 132.859 336.928 132.658 337.067 132.411C337.209 132.163 337.28 131.903 337.28 131.631V130.71C337.238 130.761 337.144 130.808 336.999 130.851C336.857 130.891 336.692 130.926 336.505 130.957C336.32 130.986 336.14 131.011 335.964 131.034C335.79 131.054 335.65 131.071 335.542 131.085C335.28 131.119 335.036 131.175 334.809 131.251C334.584 131.325 334.403 131.437 334.263 131.588C334.127 131.736 334.059 131.937 334.059 132.193C334.059 132.543 334.188 132.807 334.447 132.986C334.708 133.162 335.039 133.25 335.439 133.25ZM341.127 125.273V134H340.122V125.273H341.127ZM342.969 134V127.455H343.941V128.477H344.026C344.162 128.128 344.383 127.857 344.687 127.663C344.991 127.467 345.356 127.369 345.782 127.369C346.214 127.369 346.573 127.467 346.86 127.663C347.15 127.857 347.376 128.128 347.537 128.477H347.606C347.773 128.139 348.025 127.871 348.36 127.672C348.695 127.47 349.097 127.369 349.566 127.369C350.151 127.369 350.63 127.553 351.002 127.919C351.374 128.283 351.56 128.849 351.56 129.619V134H350.555V129.619C350.555 129.136 350.422 128.791 350.158 128.584C349.894 128.376 349.583 128.273 349.225 128.273C348.765 128.273 348.408 128.412 348.155 128.69C347.903 128.966 347.776 129.315 347.776 129.739V134H346.753V129.517C346.753 129.145 346.633 128.845 346.391 128.618C346.15 128.388 345.839 128.273 345.458 128.273C345.197 128.273 344.952 128.342 344.725 128.482C344.501 128.621 344.319 128.814 344.18 129.061C344.043 129.305 343.975 129.588 343.975 129.909V134H342.969ZM356.143 134.136C355.513 134.136 354.969 133.997 354.511 133.719C354.057 133.438 353.706 133.045 353.459 132.543C353.214 132.037 353.092 131.449 353.092 130.778C353.092 130.108 353.214 129.517 353.459 129.006C353.706 128.491 354.05 128.091 354.49 127.804C354.933 127.514 355.45 127.369 356.041 127.369C356.382 127.369 356.719 127.426 357.051 127.54C357.383 127.653 357.686 127.838 357.959 128.094C358.231 128.347 358.449 128.682 358.611 129.099C358.773 129.517 358.854 130.031 358.854 130.642V131.068H353.808V130.199H357.831C357.831 129.83 357.757 129.5 357.609 129.21C357.464 128.92 357.257 128.692 356.987 128.524C356.72 128.357 356.405 128.273 356.041 128.273C355.64 128.273 355.294 128.372 355.001 128.571C354.711 128.767 354.488 129.023 354.332 129.338C354.176 129.653 354.098 129.991 354.098 130.352V130.932C354.098 131.426 354.183 131.845 354.354 132.189C354.527 132.53 354.767 132.79 355.074 132.969C355.381 133.145 355.737 133.233 356.143 133.233C356.407 133.233 356.646 133.196 356.859 133.122C357.075 133.045 357.261 132.932 357.417 132.781C357.574 132.628 357.694 132.437 357.78 132.21L358.751 132.483C358.649 132.812 358.477 133.102 358.236 133.352C357.994 133.599 357.696 133.793 357.341 133.932C356.986 134.068 356.586 134.136 356.143 134.136ZM361.389 130.062V134H360.383V127.455H361.355V128.477H361.44C361.594 128.145 361.827 127.878 362.139 127.676C362.452 127.472 362.855 127.369 363.349 127.369C363.792 127.369 364.18 127.46 364.513 127.642C364.845 127.821 365.104 128.094 365.288 128.46C365.473 128.824 365.565 129.284 365.565 129.841V134H364.559V129.909C364.559 129.395 364.426 128.994 364.159 128.707C363.892 128.418 363.525 128.273 363.059 128.273C362.738 128.273 362.452 128.342 362.199 128.482C361.949 128.621 361.751 128.824 361.606 129.091C361.461 129.358 361.389 129.682 361.389 130.062ZM370.249 127.455V128.307H366.857V127.455H370.249ZM367.846 125.886H368.852V132.125C368.852 132.409 368.893 132.622 368.975 132.764C369.061 132.903 369.169 132.997 369.299 133.045C369.433 133.091 369.573 133.114 369.721 133.114C369.832 133.114 369.923 133.108 369.994 133.097C370.065 133.082 370.122 133.071 370.164 133.062L370.369 133.966C370.301 133.991 370.205 134.017 370.083 134.043C369.961 134.071 369.806 134.085 369.619 134.085C369.335 134.085 369.056 134.024 368.784 133.902C368.514 133.78 368.289 133.594 368.11 133.344C367.934 133.094 367.846 132.778 367.846 132.398V125.886ZM374.436 134.136C373.806 134.136 373.262 133.997 372.804 133.719C372.35 133.438 371.999 133.045 371.752 132.543C371.507 132.037 371.385 131.449 371.385 130.778C371.385 130.108 371.507 129.517 371.752 129.006C371.999 128.491 372.343 128.091 372.783 127.804C373.226 127.514 373.743 127.369 374.334 127.369C374.675 127.369 375.012 127.426 375.344 127.54C375.676 127.653 375.979 127.838 376.252 128.094C376.524 128.347 376.742 128.682 376.904 129.099C377.066 129.517 377.146 130.031 377.146 130.642V131.068H372.101V130.199H376.124C376.124 129.83 376.05 129.5 375.902 129.21C375.757 128.92 375.55 128.692 375.28 128.524C375.013 128.357 374.698 128.273 374.334 128.273C373.933 128.273 373.587 128.372 373.294 128.571C373.004 128.767 372.781 129.023 372.625 129.338C372.469 129.653 372.391 129.991 372.391 130.352V130.932C372.391 131.426 372.476 131.845 372.646 132.189C372.82 132.53 373.06 132.79 373.367 132.969C373.673 133.145 374.03 133.233 374.436 133.233C374.7 133.233 374.939 133.196 375.152 133.122C375.368 133.045 375.554 132.932 375.71 132.781C375.867 132.628 375.987 132.437 376.073 132.21L377.044 132.483C376.942 132.812 376.77 133.102 376.529 133.352C376.287 133.599 375.989 133.793 375.634 133.932C375.279 134.068 374.879 134.136 374.436 134.136Z" fill="black"/>
<path d="M425.615 86.2012C425.602 86.1686 425.596 86.1393 425.596 86.1133C425.596 86.0352 425.658 85.9961 425.781 85.9961H427.139C427.301 85.9961 427.402 86.0645 427.441 86.2012L430.977 97.5977L434.082 86.6016C434.121 86.4388 434.215 86.2988 434.365 86.1816C434.521 86.0579 434.694 85.9961 434.883 85.9961H435.576C435.765 85.9961 435.934 86.0579 436.084 86.1816C436.24 86.2988 436.338 86.4388 436.377 86.6016L439.463 97.5977L442.998 86.2012C443.037 86.071 443.138 86.0026 443.301 85.9961H444.658C444.821 85.9961 444.876 86.0645 444.824 86.2012L440.684 99.4043C440.553 99.8014 440.251 100 439.775 100H439.18C438.939 100 438.737 99.9414 438.574 99.8242C438.418 99.7005 438.32 99.5605 438.281 99.4043L435.225 88.5156L432.178 99.4043C432.139 99.5671 432.038 99.707 431.875 99.8242C431.719 99.9414 431.52 100 431.279 100H430.684C430.215 100 429.912 99.8014 429.775 99.4043L425.615 86.2012Z" fill="black"/>
<mask id="mask3_1_2" style="mask-type:alpha" maskUnits="userSpaceOnUse" x="440" y="82" width="24" height="24">
<rect x="440" y="82" width="24" height="24" fill="#D9D9D9"/>
</mask>
<g mask="url(#mask3_1_2)">
<path d="M445 95.3507V93.3247H459V95.3507H445Z" fill="#1C1B1F"/>
</g>
<path d="M404.301 117V108.273H407.25C407.934 108.273 408.494 108.396 408.929 108.643C409.366 108.888 409.69 109.219 409.9 109.636C410.111 110.054 410.216 110.52 410.216 111.034C410.216 111.548 410.111 112.016 409.9 112.436C409.693 112.857 409.372 113.192 408.937 113.442C408.503 113.689 407.946 113.812 407.267 113.812H405.153V112.875H407.233C407.702 112.875 408.078 112.794 408.362 112.632C408.646 112.47 408.852 112.251 408.98 111.976C409.111 111.697 409.176 111.384 409.176 111.034C409.176 110.685 409.111 110.372 408.98 110.097C408.852 109.821 408.645 109.605 408.358 109.449C408.071 109.29 407.69 109.21 407.216 109.21H405.358V117H404.301ZM413.708 117.153C413.293 117.153 412.917 117.075 412.579 116.919C412.241 116.76 411.972 116.531 411.773 116.233C411.574 115.932 411.475 115.568 411.475 115.142C411.475 114.767 411.549 114.463 411.697 114.23C411.844 113.994 412.042 113.81 412.289 113.676C412.536 113.543 412.809 113.443 413.107 113.378C413.408 113.31 413.711 113.256 414.015 113.216C414.412 113.165 414.735 113.126 414.982 113.101C415.232 113.072 415.414 113.026 415.528 112.96C415.644 112.895 415.702 112.781 415.702 112.619V112.585C415.702 112.165 415.587 111.838 415.357 111.605C415.13 111.372 414.785 111.256 414.322 111.256C413.841 111.256 413.465 111.361 413.192 111.571C412.92 111.781 412.728 112.006 412.617 112.244L411.662 111.903C411.833 111.506 412.06 111.196 412.344 110.974C412.631 110.75 412.944 110.594 413.282 110.506C413.623 110.415 413.958 110.369 414.287 110.369C414.498 110.369 414.739 110.395 415.012 110.446C415.287 110.494 415.553 110.595 415.809 110.749C416.067 110.902 416.282 111.134 416.452 111.443C416.623 111.753 416.708 112.168 416.708 112.688V117H415.702V116.114H415.651C415.583 116.256 415.469 116.408 415.31 116.57C415.151 116.732 414.939 116.869 414.675 116.983C414.411 117.097 414.089 117.153 413.708 117.153ZM413.861 116.25C414.259 116.25 414.594 116.172 414.867 116.016C415.143 115.859 415.35 115.658 415.489 115.411C415.631 115.163 415.702 114.903 415.702 114.631V113.71C415.66 113.761 415.566 113.808 415.421 113.851C415.279 113.891 415.114 113.926 414.927 113.957C414.742 113.986 414.562 114.011 414.385 114.034C414.212 114.054 414.072 114.071 413.964 114.085C413.702 114.119 413.458 114.175 413.231 114.251C413.006 114.325 412.824 114.437 412.685 114.588C412.549 114.736 412.481 114.937 412.481 115.193C412.481 115.543 412.61 115.807 412.868 115.986C413.13 116.162 413.461 116.25 413.861 116.25ZM418.544 117V110.455H419.515V111.443H419.583C419.703 111.119 419.919 110.857 420.231 110.655C420.544 110.453 420.896 110.352 421.288 110.352C421.362 110.352 421.454 110.354 421.565 110.357C421.676 110.359 421.759 110.364 421.816 110.369V111.392C421.782 111.384 421.704 111.371 421.582 111.354C421.463 111.334 421.336 111.324 421.203 111.324C420.884 111.324 420.6 111.391 420.35 111.524C420.103 111.655 419.907 111.837 419.762 112.07C419.62 112.3 419.549 112.562 419.549 112.858V117H418.544ZM425.468 117.136C424.855 117.136 424.326 116.991 423.883 116.702C423.44 116.412 423.099 116.013 422.86 115.504C422.622 114.996 422.502 114.415 422.502 113.761C422.502 113.097 422.624 112.51 422.869 112.001C423.116 111.49 423.46 111.091 423.9 110.804C424.343 110.514 424.86 110.369 425.451 110.369C425.911 110.369 426.326 110.455 426.695 110.625C427.065 110.795 427.367 111.034 427.603 111.341C427.839 111.648 427.985 112.006 428.042 112.415H427.036C426.96 112.116 426.789 111.852 426.525 111.622C426.264 111.389 425.911 111.273 425.468 111.273C425.076 111.273 424.732 111.375 424.437 111.58C424.144 111.781 423.916 112.067 423.751 112.436C423.589 112.803 423.508 113.233 423.508 113.727C423.508 114.233 423.588 114.673 423.747 115.048C423.909 115.423 424.136 115.714 424.428 115.922C424.724 116.129 425.07 116.233 425.468 116.233C425.73 116.233 425.967 116.188 426.18 116.097C426.393 116.006 426.573 115.875 426.721 115.705C426.869 115.534 426.974 115.33 427.036 115.091H428.042C427.985 115.477 427.845 115.825 427.62 116.135C427.399 116.442 427.105 116.686 426.738 116.868C426.374 117.047 425.951 117.136 425.468 117.136ZM429.512 117V110.455H430.518V117H429.512ZM430.024 109.364C429.828 109.364 429.659 109.297 429.517 109.163C429.377 109.03 429.308 108.869 429.308 108.682C429.308 108.494 429.377 108.334 429.517 108.2C429.659 108.067 429.828 108 430.024 108C430.22 108 430.387 108.067 430.526 108.2C430.669 108.334 430.74 108.494 430.74 108.682C430.74 108.869 430.669 109.03 430.526 109.163C430.387 109.297 430.22 109.364 430.024 109.364ZM434.286 117.153C433.871 117.153 433.495 117.075 433.157 116.919C432.819 116.76 432.55 116.531 432.351 116.233C432.153 115.932 432.053 115.568 432.053 115.142C432.053 114.767 432.127 114.463 432.275 114.23C432.422 113.994 432.62 113.81 432.867 113.676C433.114 113.543 433.387 113.443 433.685 113.378C433.986 113.31 434.289 113.256 434.593 113.216C434.991 113.165 435.313 113.126 435.56 113.101C435.81 113.072 435.992 113.026 436.106 112.96C436.222 112.895 436.28 112.781 436.28 112.619V112.585C436.28 112.165 436.165 111.838 435.935 111.605C435.708 111.372 435.363 111.256 434.9 111.256C434.42 111.256 434.043 111.361 433.77 111.571C433.498 111.781 433.306 112.006 433.195 112.244L432.241 111.903C432.411 111.506 432.638 111.196 432.922 110.974C433.209 110.75 433.522 110.594 433.86 110.506C434.201 110.415 434.536 110.369 434.866 110.369C435.076 110.369 435.317 110.395 435.59 110.446C435.866 110.494 436.131 110.595 436.387 110.749C436.645 110.902 436.86 111.134 437.03 111.443C437.201 111.753 437.286 112.168 437.286 112.688V117H436.28V116.114H436.229C436.161 116.256 436.047 116.408 435.888 116.57C435.729 116.732 435.518 116.869 435.253 116.983C434.989 117.097 434.667 117.153 434.286 117.153ZM434.439 116.25C434.837 116.25 435.172 116.172 435.445 116.016C435.721 115.859 435.928 115.658 436.067 115.411C436.209 115.163 436.28 114.903 436.28 114.631V113.71C436.238 113.761 436.144 113.808 435.999 113.851C435.857 113.891 435.692 113.926 435.505 113.957C435.32 113.986 435.14 114.011 434.964 114.034C434.79 114.054 434.65 114.071 434.542 114.085C434.28 114.119 434.036 114.175 433.809 114.251C433.584 114.325 433.403 114.437 433.263 114.588C433.127 114.736 433.059 114.937 433.059 115.193C433.059 115.543 433.188 115.807 433.447 115.986C433.708 116.162 434.039 116.25 434.439 116.25ZM440.127 108.273V117H439.122V108.273H440.127ZM441.969 117V110.455H442.941V111.477H443.026C443.162 111.128 443.383 110.857 443.687 110.663C443.991 110.467 444.356 110.369 444.782 110.369C445.214 110.369 445.573 110.467 445.86 110.663C446.15 110.857 446.376 111.128 446.537 111.477H446.606C446.773 111.139 447.025 110.871 447.36 110.672C447.695 110.47 448.097 110.369 448.566 110.369C449.151 110.369 449.63 110.553 450.002 110.919C450.374 111.283 450.56 111.849 450.56 112.619V117H449.555V112.619C449.555 112.136 449.422 111.791 449.158 111.584C448.894 111.376 448.583 111.273 448.225 111.273C447.765 111.273 447.408 111.412 447.155 111.69C446.903 111.966 446.776 112.315 446.776 112.739V117H445.753V112.517C445.753 112.145 445.633 111.845 445.391 111.618C445.15 111.388 444.839 111.273 444.458 111.273C444.197 111.273 443.952 111.342 443.725 111.482C443.501 111.621 443.319 111.814 443.18 112.061C443.043 112.305 442.975 112.588 442.975 112.909V117H441.969ZM455.143 117.136C454.513 117.136 453.969 116.997 453.511 116.719C453.057 116.438 452.706 116.045 452.459 115.543C452.214 115.037 452.092 114.449 452.092 113.778C452.092 113.108 452.214 112.517 452.459 112.006C452.706 111.491 453.05 111.091 453.49 110.804C453.933 110.514 454.45 110.369 455.041 110.369C455.382 110.369 455.719 110.426 456.051 110.54C456.383 110.653 456.686 110.838 456.959 111.094C457.231 111.347 457.449 111.682 457.611 112.099C457.773 112.517 457.854 113.031 457.854 113.642V114.068H452.808V113.199H456.831C456.831 112.83 456.757 112.5 456.609 112.21C456.464 111.92 456.257 111.692 455.987 111.524C455.72 111.357 455.405 111.273 455.041 111.273C454.64 111.273 454.294 111.372 454.001 111.571C453.711 111.767 453.488 112.023 453.332 112.338C453.176 112.653 453.098 112.991 453.098 113.352V113.932C453.098 114.426 453.183 114.845 453.354 115.189C453.527 115.53 453.767 115.79 454.074 115.969C454.381 116.145 454.737 116.233 455.143 116.233C455.407 116.233 455.646 116.196 455.859 116.122C456.075 116.045 456.261 115.932 456.417 115.781C456.574 115.628 456.694 115.437 456.78 115.21L457.751 115.483C457.649 115.812 457.477 116.102 457.236 116.352C456.994 116.599 456.696 116.793 456.341 116.932C455.986 117.068 455.586 117.136 455.143 117.136ZM460.389 113.062V117H459.383V110.455H460.355V111.477H460.44C460.594 111.145 460.827 110.878 461.139 110.676C461.452 110.472 461.855 110.369 462.349 110.369C462.792 110.369 463.18 110.46 463.513 110.642C463.845 110.821 464.104 111.094 464.288 111.46C464.473 111.824 464.565 112.284 464.565 112.841V117H463.559V112.909C463.559 112.395 463.426 111.994 463.159 111.707C462.892 111.418 462.525 111.273 462.059 111.273C461.738 111.273 461.452 111.342 461.199 111.482C460.949 111.621 460.751 111.824 460.606 112.091C460.461 112.358 460.389 112.682 460.389 113.062ZM469.249 110.455V111.307H465.857V110.455H469.249ZM466.846 108.886H467.852V115.125C467.852 115.409 467.893 115.622 467.975 115.764C468.061 115.903 468.169 115.997 468.299 116.045C468.433 116.091 468.573 116.114 468.721 116.114C468.832 116.114 468.923 116.108 468.994 116.097C469.065 116.082 469.122 116.071 469.164 116.062L469.369 116.966C469.301 116.991 469.205 117.017 469.083 117.043C468.961 117.071 468.806 117.085 468.619 117.085C468.335 117.085 468.056 117.024 467.784 116.902C467.514 116.78 467.289 116.594 467.11 116.344C466.934 116.094 466.846 115.778 466.846 115.398V108.886ZM473.436 117.136C472.806 117.136 472.262 116.997 471.804 116.719C471.35 116.438 470.999 116.045 470.752 115.543C470.507 115.037 470.385 114.449 470.385 113.778C470.385 113.108 470.507 112.517 470.752 112.006C470.999 111.491 471.343 111.091 471.783 110.804C472.226 110.514 472.743 110.369 473.334 110.369C473.675 110.369 474.012 110.426 474.344 110.54C474.676 110.653 474.979 110.838 475.252 111.094C475.524 111.347 475.742 111.682 475.904 112.099C476.066 112.517 476.146 113.031 476.146 113.642V114.068H471.101V113.199H475.124C475.124 112.83 475.05 112.5 474.902 112.21C474.757 111.92 474.55 111.692 474.28 111.524C474.013 111.357 473.698 111.273 473.334 111.273C472.933 111.273 472.587 111.372 472.294 111.571C472.004 111.767 471.781 112.023 471.625 112.338C471.469 112.653 471.391 112.991 471.391 113.352V113.932C471.391 114.426 471.476 114.845 471.646 115.189C471.82 115.53 472.06 115.79 472.367 115.969C472.673 116.145 473.03 116.233 473.436 116.233C473.7 116.233 473.939 116.196 474.152 116.122C474.368 116.045 474.554 115.932 474.71 115.781C474.867 115.628 474.987 115.437 475.073 115.21L476.044 115.483C475.942 115.812 475.77 116.102 475.529 116.352C475.287 116.599 474.989 116.793 474.634 116.932C474.279 117.068 473.879 117.136 473.436 117.136ZM425.624 123.273V132H424.601L419.845 125.148H419.76V132H418.703V123.273H419.726L424.499 130.142H424.584V123.273H425.624ZM430.346 132.136C429.716 132.136 429.172 131.997 428.714 131.719C428.26 131.438 427.909 131.045 427.662 130.543C427.417 130.037 427.295 129.449 427.295 128.778C427.295 128.108 427.417 127.517 427.662 127.006C427.909 126.491 428.253 126.091 428.693 125.804C429.136 125.514 429.653 125.369 430.244 125.369C430.585 125.369 430.922 125.426 431.254 125.54C431.586 125.653 431.889 125.838 432.162 126.094C432.434 126.347 432.652 126.682 432.814 127.099C432.976 127.517 433.057 128.031 433.057 128.642V129.068H428.011V128.199H432.034C432.034 127.83 431.96 127.5 431.812 127.21C431.667 126.92 431.46 126.692 431.19 126.524C430.923 126.357 430.608 126.273 430.244 126.273C429.844 126.273 429.497 126.372 429.204 126.571C428.915 126.767 428.692 127.023 428.535 127.338C428.379 127.653 428.301 127.991 428.301 128.352V128.932C428.301 129.426 428.386 129.845 428.557 130.189C428.73 130.53 428.97 130.79 429.277 130.969C429.584 131.145 429.94 131.233 430.346 131.233C430.611 131.233 430.849 131.196 431.062 131.122C431.278 131.045 431.464 130.932 431.621 130.781C431.777 130.628 431.898 130.437 431.983 130.21L432.954 130.483C432.852 130.812 432.68 131.102 432.439 131.352C432.197 131.599 431.899 131.793 431.544 131.932C431.189 132.068 430.79 132.136 430.346 132.136ZM437.229 134.591C436.743 134.591 436.325 134.528 435.976 134.403C435.626 134.281 435.335 134.119 435.102 133.918C434.872 133.719 434.689 133.506 434.552 133.278L435.354 132.716C435.444 132.835 435.559 132.972 435.699 133.125C435.838 133.281 436.028 133.416 436.27 133.53C436.514 133.646 436.834 133.705 437.229 133.705C437.757 133.705 438.193 133.577 438.537 133.321C438.881 133.065 439.052 132.665 439.052 132.119V130.79H438.967C438.893 130.909 438.788 131.057 438.652 131.233C438.518 131.406 438.325 131.561 438.072 131.697C437.822 131.831 437.484 131.898 437.058 131.898C436.53 131.898 436.055 131.773 435.635 131.523C435.217 131.273 434.886 130.909 434.642 130.432C434.4 129.955 434.28 129.375 434.28 128.693C434.28 128.023 434.398 127.439 434.633 126.942C434.869 126.442 435.197 126.055 435.618 125.783C436.038 125.507 436.524 125.369 437.075 125.369C437.501 125.369 437.839 125.44 438.089 125.582C438.342 125.722 438.535 125.881 438.669 126.06C438.805 126.236 438.91 126.381 438.984 126.494H439.086V125.455H440.058V132.188C440.058 132.75 439.93 133.207 439.675 133.56C439.422 133.915 439.081 134.175 438.652 134.339C438.226 134.507 437.751 134.591 437.229 134.591ZM437.194 130.994C437.598 130.994 437.939 130.902 438.217 130.717C438.496 130.533 438.707 130.267 438.852 129.92C438.997 129.574 439.069 129.159 439.069 128.676C439.069 128.205 438.998 127.788 438.856 127.428C438.714 127.067 438.504 126.784 438.226 126.58C437.947 126.375 437.604 126.273 437.194 126.273C436.768 126.273 436.413 126.381 436.129 126.597C435.848 126.812 435.636 127.102 435.494 127.466C435.355 127.83 435.285 128.233 435.285 128.676C435.285 129.131 435.356 129.533 435.498 129.882C435.643 130.229 435.856 130.501 436.138 130.7C436.422 130.896 436.774 130.994 437.194 130.994ZM443.825 132.153C443.41 132.153 443.034 132.075 442.696 131.919C442.358 131.76 442.089 131.531 441.89 131.233C441.692 130.932 441.592 130.568 441.592 130.142C441.592 129.767 441.666 129.463 441.814 129.23C441.961 128.994 442.159 128.81 442.406 128.676C442.653 128.543 442.926 128.443 443.224 128.378C443.525 128.31 443.828 128.256 444.132 128.216C444.53 128.165 444.852 128.126 445.099 128.101C445.349 128.072 445.531 128.026 445.645 127.96C445.761 127.895 445.819 127.781 445.819 127.619V127.585C445.819 127.165 445.704 126.838 445.474 126.605C445.247 126.372 444.902 126.256 444.439 126.256C443.959 126.256 443.582 126.361 443.309 126.571C443.037 126.781 442.845 127.006 442.734 127.244L441.78 126.903C441.95 126.506 442.177 126.196 442.461 125.974C442.748 125.75 443.061 125.594 443.399 125.506C443.74 125.415 444.075 125.369 444.405 125.369C444.615 125.369 444.856 125.395 445.129 125.446C445.405 125.494 445.67 125.595 445.926 125.749C446.184 125.902 446.399 126.134 446.569 126.443C446.74 126.753 446.825 127.168 446.825 127.688V132H445.819V131.114H445.768C445.7 131.256 445.586 131.408 445.427 131.57C445.268 131.732 445.057 131.869 444.792 131.983C444.528 132.097 444.206 132.153 443.825 132.153ZM443.979 131.25C444.376 131.25 444.711 131.172 444.984 131.016C445.26 130.859 445.467 130.658 445.606 130.411C445.748 130.163 445.819 129.903 445.819 129.631V128.71C445.777 128.761 445.683 128.808 445.538 128.851C445.396 128.891 445.231 128.926 445.044 128.957C444.859 128.986 444.679 129.011 444.503 129.034C444.329 129.054 444.189 129.071 444.081 129.085C443.819 129.119 443.575 129.175 443.348 129.251C443.123 129.325 442.942 129.437 442.802 129.588C442.666 129.736 442.598 129.937 442.598 130.193C442.598 130.543 442.727 130.807 442.986 130.986C443.247 131.162 443.578 131.25 443.979 131.25ZM451.132 132.136C450.587 132.136 450.105 131.999 449.688 131.723C449.27 131.445 448.943 131.053 448.708 130.547C448.472 130.038 448.354 129.438 448.354 128.744C448.354 128.057 448.472 127.46 448.708 126.955C448.943 126.449 449.271 126.058 449.692 125.783C450.112 125.507 450.598 125.369 451.149 125.369C451.575 125.369 451.912 125.44 452.159 125.582C452.409 125.722 452.6 125.881 452.73 126.06C452.864 126.236 452.968 126.381 453.041 126.494H453.127V123.273H454.132V132H453.161V130.994H453.041C452.968 131.114 452.862 131.264 452.726 131.446C452.59 131.625 452.395 131.786 452.142 131.928C451.889 132.067 451.553 132.136 451.132 132.136ZM451.269 131.233C451.672 131.233 452.013 131.128 452.291 130.918C452.57 130.705 452.781 130.411 452.926 130.036C453.071 129.658 453.144 129.222 453.144 128.727C453.144 128.239 453.073 127.811 452.931 127.445C452.789 127.075 452.578 126.788 452.3 126.584C452.021 126.376 451.678 126.273 451.269 126.273C450.843 126.273 450.487 126.382 450.203 126.601C449.922 126.817 449.71 127.111 449.568 127.483C449.429 127.852 449.36 128.267 449.36 128.727C449.36 129.193 449.431 129.616 449.573 129.997C449.718 130.375 449.931 130.676 450.212 130.901C450.496 131.122 450.848 131.233 451.269 131.233ZM458.773 132.136C458.182 132.136 457.664 131.996 457.218 131.714C456.774 131.433 456.428 131.04 456.178 130.534C455.931 130.028 455.807 129.437 455.807 128.761C455.807 128.08 455.931 127.484 456.178 126.976C456.428 126.467 456.774 126.072 457.218 125.791C457.664 125.51 458.182 125.369 458.773 125.369C459.364 125.369 459.881 125.51 460.324 125.791C460.77 126.072 461.117 126.467 461.364 126.976C461.614 127.484 461.739 128.08 461.739 128.761C461.739 129.437 461.614 130.028 461.364 130.534C461.117 131.04 460.77 131.433 460.324 131.714C459.881 131.996 459.364 132.136 458.773 132.136ZM458.773 131.233C459.222 131.233 459.591 131.118 459.881 130.888C460.171 130.658 460.385 130.355 460.524 129.98C460.664 129.605 460.733 129.199 460.733 128.761C460.733 128.324 460.664 127.916 460.524 127.538C460.385 127.161 460.171 126.855 459.881 126.622C459.591 126.389 459.222 126.273 458.773 126.273C458.324 126.273 457.955 126.389 457.665 126.622C457.375 126.855 457.161 127.161 457.021 127.538C456.882 127.916 456.813 128.324 456.813 128.761C456.813 129.199 456.882 129.605 457.021 129.98C457.161 130.355 457.375 130.658 457.665 130.888C457.955 131.118 458.324 131.233 458.773 131.233Z" fill="black"/>
<mask id="mask4_1_2" style="mask-type:alpha" maskUnits="userSpaceOnUse" x="162" y="84" width="24" height="24">
<rect x="162" y="84" width="24" height="24" fill="#D9D9D9"/>
</mask>
<g mask="url(#mask4_1_2)">
<path d="M174 99.9714L177.2 95.3117H174.35L176.35 88.2208H171V96.3247H174V99.9714ZM172 106.455V98.3506H169V86.1948H179L177 93.2857H181L172 106.455Z" fill="#1C1B1F"/>
</g>
<path d="M160.08 116H159.023C158.96 115.696 158.851 115.429 158.695 115.199C158.541 114.969 158.354 114.776 158.132 114.619C157.913 114.46 157.67 114.341 157.403 114.261C157.136 114.182 156.858 114.142 156.568 114.142C156.04 114.142 155.561 114.276 155.132 114.543C154.706 114.81 154.366 115.203 154.114 115.723C153.864 116.243 153.739 116.881 153.739 117.636C153.739 118.392 153.864 119.03 154.114 119.55C154.366 120.07 154.706 120.463 155.132 120.73C155.561 120.997 156.04 121.131 156.568 121.131C156.858 121.131 157.136 121.091 157.403 121.011C157.67 120.932 157.913 120.814 158.132 120.658C158.354 120.499 158.541 120.304 158.695 120.074C158.851 119.841 158.96 119.574 159.023 119.273H160.08C160 119.719 159.855 120.118 159.645 120.47C159.435 120.822 159.173 121.122 158.861 121.369C158.548 121.614 158.197 121.8 157.808 121.928C157.422 122.055 157.009 122.119 156.568 122.119C155.824 122.119 155.162 121.938 154.582 121.574C154.003 121.21 153.547 120.693 153.214 120.023C152.882 119.352 152.716 118.557 152.716 117.636C152.716 116.716 152.882 115.92 153.214 115.25C153.547 114.58 154.003 114.062 154.582 113.699C155.162 113.335 155.824 113.153 156.568 113.153C157.009 113.153 157.422 113.217 157.808 113.345C158.197 113.473 158.548 113.661 158.861 113.908C159.173 114.152 159.435 114.45 159.645 114.803C159.855 115.152 160 115.551 160.08 116ZM164.31 122.136C163.719 122.136 163.201 121.996 162.755 121.714C162.311 121.433 161.965 121.04 161.715 120.534C161.468 120.028 161.344 119.437 161.344 118.761C161.344 118.08 161.468 117.484 161.715 116.976C161.965 116.467 162.311 116.072 162.755 115.791C163.201 115.51 163.719 115.369 164.31 115.369C164.901 115.369 165.418 115.51 165.861 115.791C166.307 116.072 166.654 116.467 166.901 116.976C167.151 117.484 167.276 118.08 167.276 118.761C167.276 119.437 167.151 120.028 166.901 120.534C166.654 121.04 166.307 121.433 165.861 121.714C165.418 121.996 164.901 122.136 164.31 122.136ZM164.31 121.233C164.759 121.233 165.128 121.118 165.418 120.888C165.708 120.658 165.922 120.355 166.061 119.98C166.201 119.605 166.27 119.199 166.27 118.761C166.27 118.324 166.201 117.916 166.061 117.538C165.922 117.161 165.708 116.855 165.418 116.622C165.128 116.389 164.759 116.273 164.31 116.273C163.861 116.273 163.492 116.389 163.202 116.622C162.912 116.855 162.698 117.161 162.559 117.538C162.419 117.916 162.35 118.324 162.35 118.761C162.35 119.199 162.419 119.605 162.559 119.98C162.698 120.355 162.912 120.658 163.202 120.888C163.492 121.118 163.861 121.233 164.31 121.233ZM169.817 118.062V122H168.811V115.455H169.783V116.477H169.868C170.021 116.145 170.254 115.878 170.567 115.676C170.879 115.472 171.283 115.369 171.777 115.369C172.22 115.369 172.608 115.46 172.94 115.642C173.273 115.821 173.531 116.094 173.716 116.46C173.901 116.824 173.993 117.284 173.993 117.841V122H172.987V117.909C172.987 117.395 172.854 116.994 172.587 116.707C172.32 116.418 171.953 116.273 171.487 116.273C171.166 116.273 170.879 116.342 170.626 116.482C170.376 116.621 170.179 116.824 170.034 117.091C169.889 117.358 169.817 117.682 169.817 118.062ZM178.745 115.455V116.307H175.217V115.455H178.745ZM176.274 122V114.551C176.274 114.176 176.362 113.864 176.538 113.614C176.714 113.364 176.943 113.176 177.224 113.051C177.505 112.926 177.802 112.864 178.115 112.864C178.362 112.864 178.564 112.884 178.72 112.923C178.876 112.963 178.993 113 179.069 113.034L178.779 113.903C178.728 113.886 178.657 113.865 178.566 113.839C178.478 113.814 178.362 113.801 178.217 113.801C177.885 113.801 177.645 113.885 177.497 114.053C177.352 114.22 177.279 114.466 177.279 114.79V122H176.274ZM181.161 113.273V122H180.155V113.273H181.161ZM183.002 122V115.455H184.008V122H183.002ZM183.514 114.364C183.318 114.364 183.149 114.297 183.007 114.163C182.868 114.03 182.798 113.869 182.798 113.682C182.798 113.494 182.868 113.334 183.007 113.2C183.149 113.067 183.318 113 183.514 113C183.71 113 183.877 113.067 184.017 113.2C184.159 113.334 184.23 113.494 184.23 113.682C184.23 113.869 184.159 114.03 184.017 114.163C183.877 114.297 183.71 114.364 183.514 114.364ZM188.697 115.455V116.307H185.305V115.455H188.697ZM186.293 113.886H187.299V120.125C187.299 120.409 187.34 120.622 187.423 120.764C187.508 120.903 187.616 120.997 187.746 121.045C187.88 121.091 188.021 121.114 188.168 121.114C188.279 121.114 188.37 121.108 188.441 121.097C188.512 121.082 188.569 121.071 188.612 121.062L188.816 121.966C188.748 121.991 188.653 122.017 188.531 122.043C188.408 122.071 188.254 122.085 188.066 122.085C187.782 122.085 187.504 122.024 187.231 121.902C186.961 121.78 186.737 121.594 186.558 121.344C186.381 121.094 186.293 120.778 186.293 120.398V113.886ZM192.798 122.136C192.207 122.136 191.689 121.996 191.243 121.714C190.8 121.433 190.453 121.04 190.203 120.534C189.956 120.028 189.832 119.437 189.832 118.761C189.832 118.08 189.956 117.484 190.203 116.976C190.453 116.467 190.8 116.072 191.243 115.791C191.689 115.51 192.207 115.369 192.798 115.369C193.389 115.369 193.906 115.51 194.349 115.791C194.795 116.072 195.142 116.467 195.389 116.976C195.639 117.484 195.764 118.08 195.764 118.761C195.764 119.437 195.639 120.028 195.389 120.534C195.142 121.04 194.795 121.433 194.349 121.714C193.906 121.996 193.389 122.136 192.798 122.136ZM192.798 121.233C193.247 121.233 193.616 121.118 193.906 120.888C194.196 120.658 194.411 120.355 194.55 119.98C194.689 119.605 194.759 119.199 194.759 118.761C194.759 118.324 194.689 117.916 194.55 117.538C194.411 117.161 194.196 116.855 193.906 116.622C193.616 116.389 193.247 116.273 192.798 116.273C192.349 116.273 191.98 116.389 191.69 116.622C191.401 116.855 191.186 117.161 191.047 117.538C190.908 117.916 190.838 118.324 190.838 118.761C190.838 119.199 190.908 119.605 191.047 119.98C191.186 120.355 191.401 120.658 191.69 120.888C191.98 121.118 192.349 121.233 192.798 121.233Z" fill="black"/>
<path d="M224.114 111.273V120H223.057V111.273H224.114ZM227.102 116.062V120H226.096V113.455H227.068V114.477H227.153C227.306 114.145 227.539 113.878 227.852 113.676C228.164 113.472 228.568 113.369 229.062 113.369C229.505 113.369 229.893 113.46 230.225 113.642C230.558 113.821 230.816 114.094 231.001 114.46C231.186 114.824 231.278 115.284 231.278 115.841V120H230.272V115.909C230.272 115.395 230.139 114.994 229.872 114.707C229.605 114.418 229.238 114.273 228.772 114.273C228.451 114.273 228.164 114.342 227.912 114.482C227.662 114.621 227.464 114.824 227.319 115.091C227.174 115.358 227.102 115.682 227.102 116.062ZM235.587 120.136C235.042 120.136 234.56 119.999 234.143 119.723C233.725 119.445 233.398 119.053 233.163 118.547C232.927 118.038 232.809 117.438 232.809 116.744C232.809 116.057 232.927 115.46 233.163 114.955C233.398 114.449 233.727 114.058 234.147 113.783C234.567 113.507 235.053 113.369 235.604 113.369C236.031 113.369 236.367 113.44 236.614 113.582C236.864 113.722 237.055 113.881 237.185 114.06C237.319 114.236 237.423 114.381 237.496 114.494H237.582V111.273H238.587V120H237.616V118.994H237.496C237.423 119.114 237.317 119.264 237.181 119.446C237.045 119.625 236.85 119.786 236.597 119.928C236.344 120.067 236.008 120.136 235.587 120.136ZM235.724 119.233C236.127 119.233 236.468 119.128 236.746 118.918C237.025 118.705 237.237 118.411 237.381 118.036C237.526 117.658 237.599 117.222 237.599 116.727C237.599 116.239 237.528 115.811 237.386 115.445C237.244 115.075 237.033 114.788 236.755 114.584C236.477 114.376 236.133 114.273 235.724 114.273C235.298 114.273 234.942 114.382 234.658 114.601C234.377 114.817 234.165 115.111 234.023 115.483C233.884 115.852 233.815 116.267 233.815 116.727C233.815 117.193 233.886 117.616 234.028 117.997C234.173 118.375 234.386 118.676 234.667 118.901C234.951 119.122 235.303 119.233 235.724 119.233ZM243.313 120.136C242.683 120.136 242.138 119.997 241.681 119.719C241.227 119.438 240.876 119.045 240.629 118.543C240.384 118.037 240.262 117.449 240.262 116.778C240.262 116.108 240.384 115.517 240.629 115.006C240.876 114.491 241.219 114.091 241.66 113.804C242.103 113.514 242.62 113.369 243.211 113.369C243.552 113.369 243.888 113.426 244.221 113.54C244.553 113.653 244.856 113.838 245.129 114.094C245.401 114.347 245.619 114.682 245.781 115.099C245.942 115.517 246.023 116.031 246.023 116.642V117.068H240.978V116.199H245.001C245.001 115.83 244.927 115.5 244.779 115.21C244.634 114.92 244.427 114.692 244.157 114.524C243.89 114.357 243.575 114.273 243.211 114.273C242.81 114.273 242.464 114.372 242.171 114.571C241.881 114.767 241.658 115.023 241.502 115.338C241.346 115.653 241.268 115.991 241.268 116.352V116.932C241.268 117.426 241.353 117.845 241.523 118.189C241.697 118.53 241.937 118.79 242.244 118.969C242.55 119.145 242.907 119.233 243.313 119.233C243.577 119.233 243.816 119.196 244.029 119.122C244.245 119.045 244.431 118.932 244.587 118.781C244.744 118.628 244.864 118.437 244.95 118.21L245.921 118.483C245.819 118.812 245.647 119.102 245.406 119.352C245.164 119.599 244.866 119.793 244.511 119.932C244.156 120.068 243.756 120.136 243.313 120.136ZM250.468 113.455V114.307H246.94V113.455H250.468ZM247.996 120V112.551C247.996 112.176 248.085 111.864 248.261 111.614C248.437 111.364 248.665 111.176 248.947 111.051C249.228 110.926 249.525 110.864 249.837 110.864C250.085 110.864 250.286 110.884 250.442 110.923C250.599 110.963 250.715 111 250.792 111.034L250.502 111.903C250.451 111.886 250.38 111.865 250.289 111.839C250.201 111.814 250.085 111.801 249.94 111.801C249.607 111.801 249.367 111.885 249.219 112.053C249.075 112.22 249.002 112.466 249.002 112.79V120H247.996ZM251.877 120V113.455H252.883V120H251.877ZM252.389 112.364C252.193 112.364 252.024 112.297 251.882 112.163C251.743 112.03 251.673 111.869 251.673 111.682C251.673 111.494 251.743 111.334 251.882 111.2C252.024 111.067 252.193 111 252.389 111C252.585 111 252.752 111.067 252.892 111.2C253.034 111.334 253.105 111.494 253.105 111.682C253.105 111.869 253.034 112.03 252.892 112.163C252.752 112.297 252.585 112.364 252.389 112.364ZM255.731 116.062V120H254.725V113.455H255.697V114.477H255.782C255.935 114.145 256.168 113.878 256.481 113.676C256.793 113.472 257.197 113.369 257.691 113.369C258.134 113.369 258.522 113.46 258.854 113.642C259.187 113.821 259.445 114.094 259.63 114.46C259.815 114.824 259.907 115.284 259.907 115.841V120H258.901V115.909C258.901 115.395 258.768 114.994 258.501 114.707C258.234 114.418 257.867 114.273 257.401 114.273C257.08 114.273 256.793 114.342 256.54 114.482C256.29 114.621 256.093 114.824 255.948 115.091C255.803 115.358 255.731 115.682 255.731 116.062ZM261.745 120V113.455H262.75V120H261.745ZM262.256 112.364C262.06 112.364 261.891 112.297 261.749 112.163C261.61 112.03 261.54 111.869 261.54 111.682C261.54 111.494 261.61 111.334 261.749 111.2C261.891 111.067 262.06 111 262.256 111C262.452 111 262.62 111.067 262.759 111.2C262.901 111.334 262.972 111.494 262.972 111.682C262.972 111.869 262.901 112.03 262.759 112.163C262.62 112.297 262.452 112.364 262.256 112.364ZM267.064 120.136C266.518 120.136 266.037 119.999 265.619 119.723C265.202 119.445 264.875 119.053 264.639 118.547C264.403 118.038 264.286 117.438 264.286 116.744C264.286 116.057 264.403 115.46 264.639 114.955C264.875 114.449 265.203 114.058 265.624 113.783C266.044 113.507 266.53 113.369 267.081 113.369C267.507 113.369 267.844 113.44 268.091 113.582C268.341 113.722 268.531 113.881 268.662 114.06C268.795 114.236 268.899 114.381 268.973 114.494H269.058V111.273H270.064V120H269.092V118.994H268.973C268.899 119.114 268.794 119.264 268.658 119.446C268.521 119.625 268.327 119.786 268.074 119.928C267.821 120.067 267.484 120.136 267.064 120.136ZM267.2 119.233C267.604 119.233 267.945 119.128 268.223 118.918C268.501 118.705 268.713 118.411 268.858 118.036C269.003 117.658 269.075 117.222 269.075 116.727C269.075 116.239 269.004 115.811 268.862 115.445C268.72 115.075 268.51 114.788 268.232 114.584C267.953 114.376 267.609 114.273 267.2 114.273C266.774 114.273 266.419 114.382 266.135 114.601C265.854 114.817 265.642 115.111 265.5 115.483C265.361 115.852 265.291 116.267 265.291 116.727C265.291 117.193 265.362 117.616 265.504 117.997C265.649 118.375 265.862 118.676 266.143 118.901C266.428 119.122 266.78 119.233 267.2 119.233ZM274.705 120.136C274.114 120.136 273.595 119.996 273.149 119.714C272.706 119.433 272.359 119.04 272.109 118.534C271.862 118.028 271.739 117.437 271.739 116.761C271.739 116.08 271.862 115.484 272.109 114.976C272.359 114.467 272.706 114.072 273.149 113.791C273.595 113.51 274.114 113.369 274.705 113.369C275.295 113.369 275.813 113.51 276.256 113.791C276.702 114.072 277.048 114.467 277.295 114.976C277.545 115.484 277.67 116.08 277.67 116.761C277.67 117.437 277.545 118.028 277.295 118.534C277.048 119.04 276.702 119.433 276.256 119.714C275.813 119.996 275.295 120.136 274.705 120.136ZM274.705 119.233C275.153 119.233 275.523 119.118 275.812 118.888C276.102 118.658 276.317 118.355 276.456 117.98C276.595 117.605 276.665 117.199 276.665 116.761C276.665 116.324 276.595 115.916 276.456 115.538C276.317 115.161 276.102 114.855 275.812 114.622C275.523 114.389 275.153 114.273 274.705 114.273C274.256 114.273 273.886 114.389 273.597 114.622C273.307 114.855 273.092 115.161 272.953 115.538C272.814 115.916 272.744 116.324 272.744 116.761C272.744 117.199 272.814 117.605 272.953 117.98C273.092 118.355 273.307 118.658 273.597 118.888C273.886 119.118 274.256 119.233 274.705 119.233Z" fill="black"/>
<path d="M258.938 86.8633L257.141 94.627C256.704 96.5085 256.04 98.0286 255.148 99.1875C253.599 101.193 251.851 102.195 249.904 102.195C247.958 102.195 246.672 101.193 246.047 99.1875C245.884 98.6667 245.803 98.071 245.803 97.4004C245.803 96.5801 245.923 95.6556 246.164 94.627C246.613 92.6999 247.274 91.2578 248.146 90.3008C248.693 89.7018 249.234 89.2396 249.768 88.9141H246.994L247.023 88.8164L248.117 87.2539H253.518L253.488 87.3516L252.395 88.9141C251.444 89.2135 250.604 89.8255 249.875 90.75C249.055 91.7852 248.469 93.0775 248.117 94.627C247.883 95.6556 247.766 96.5312 247.766 97.2539C247.766 97.7096 247.811 98.1003 247.902 98.4258C248.293 99.832 249.09 100.535 250.295 100.535C251.493 100.535 252.609 99.832 253.645 98.4258C254.296 97.5404 254.81 96.2741 255.188 94.627L256.779 87.7422L258.84 86.8633H258.938Z" fill="black"/>
<path d="M210.523 30.4545V45H208.761V30.4545H210.523ZM213.827 45V34.0909H215.446V35.7955H215.588C215.816 35.2131 216.183 34.7609 216.689 34.4389C217.196 34.1122 217.804 33.9489 218.515 33.9489C219.234 33.9489 219.833 34.1122 220.311 34.4389C220.794 34.7609 221.171 35.2131 221.441 35.7955H221.554C221.834 35.232 222.253 34.7846 222.811 34.4531C223.37 34.117 224.04 33.9489 224.821 33.9489C225.797 33.9489 226.595 34.2543 227.215 34.8651C227.835 35.4711 228.145 36.4157 228.145 37.6989V45H226.469V37.6989C226.469 36.8939 226.249 36.3187 225.809 35.973C225.368 35.6274 224.85 35.4545 224.253 35.4545C223.486 35.4545 222.892 35.6866 222.471 36.1506C222.049 36.6098 221.838 37.1922 221.838 37.8977V45H220.134V37.5284C220.134 36.9081 219.933 36.4086 219.53 36.0298C219.128 35.6463 218.609 35.4545 217.975 35.4545C217.539 35.4545 217.132 35.5705 216.753 35.8026C216.379 36.0346 216.076 36.3565 215.844 36.7685C215.617 37.1757 215.503 37.6468 215.503 38.1818V45H213.827ZM231.21 49.0909V34.0909H232.829V35.8239H233.028C233.151 35.6345 233.322 35.393 233.539 35.0994C233.762 34.8011 234.079 34.536 234.491 34.304C234.908 34.0672 235.471 33.9489 236.181 33.9489C237.1 33.9489 237.91 34.1785 238.61 34.6378C239.311 35.0971 239.858 35.7481 240.251 36.5909C240.644 37.4337 240.841 38.428 240.841 39.5739C240.841 40.7292 240.644 41.7306 240.251 42.5781C239.858 43.4209 239.314 44.0743 238.618 44.5384C237.922 44.9976 237.119 45.2273 236.21 45.2273C235.509 45.2273 234.948 45.1113 234.527 44.8793C234.105 44.6425 233.781 44.375 233.554 44.0767C233.326 43.7737 233.151 43.5227 233.028 43.3239H232.886V49.0909H231.21ZM232.858 39.5455C232.858 40.3693 232.978 41.0961 233.22 41.7259C233.461 42.3509 233.814 42.8409 234.278 43.196C234.742 43.5464 235.31 43.7216 235.983 43.7216C236.683 43.7216 237.268 43.5369 237.737 43.1676C238.21 42.7936 238.565 42.2917 238.802 41.6619C239.044 41.0275 239.164 40.322 239.164 39.5455C239.164 38.7784 239.046 38.0871 238.809 37.4716C238.577 36.8513 238.225 36.3613 237.751 36.0014C237.282 35.6368 236.693 35.4545 235.983 35.4545C235.301 35.4545 234.728 35.6274 234.264 35.973C233.8 36.3139 233.449 36.7921 233.213 37.4077C232.976 38.0185 232.858 38.7311 232.858 39.5455ZM246.608 45.2557C245.916 45.2557 245.289 45.1255 244.725 44.8651C244.162 44.5999 243.715 44.2188 243.383 43.7216C243.052 43.2197 242.886 42.6136 242.886 41.9034C242.886 41.2784 243.009 40.7718 243.255 40.3835C243.502 39.9905 243.831 39.6828 244.243 39.4602C244.654 39.2377 245.109 39.072 245.606 38.9631C246.108 38.8494 246.612 38.7595 247.119 38.6932C247.782 38.608 248.319 38.544 248.731 38.5014C249.148 38.4541 249.451 38.3759 249.64 38.267C249.834 38.1581 249.931 37.9687 249.931 37.6989V37.642C249.931 36.9413 249.74 36.3968 249.356 36.0085C248.977 35.6203 248.402 35.4261 247.63 35.4261C246.83 35.4261 246.203 35.6013 245.748 35.9517C245.294 36.3021 244.974 36.6761 244.789 37.0739L243.199 36.5057C243.483 35.8428 243.861 35.3267 244.335 34.9574C244.813 34.5833 245.334 34.3229 245.897 34.1761C246.466 34.0246 247.024 33.9489 247.574 33.9489C247.924 33.9489 248.326 33.9915 248.781 34.0767C249.24 34.1572 249.683 34.3253 250.109 34.581C250.54 34.8366 250.897 35.2225 251.181 35.7386C251.466 36.2547 251.608 36.946 251.608 37.8125V45H249.931V43.5227H249.846C249.733 43.7595 249.543 44.0128 249.278 44.2827C249.013 44.5526 248.66 44.7822 248.22 44.9716C247.779 45.161 247.242 45.2557 246.608 45.2557ZM246.863 43.75C247.526 43.75 248.085 43.6198 248.539 43.3594C248.999 43.099 249.344 42.7628 249.576 42.3509C249.813 41.9389 249.931 41.5057 249.931 41.0511V39.517C249.86 39.6023 249.704 39.6804 249.463 39.7514C249.226 39.8177 248.951 39.8769 248.639 39.929C248.331 39.9763 248.03 40.0189 247.737 40.0568C247.448 40.09 247.214 40.1184 247.034 40.142C246.598 40.1989 246.191 40.2912 245.812 40.419C245.438 40.5421 245.135 40.7292 244.903 40.9801C244.676 41.2263 244.562 41.5625 244.562 41.9886C244.562 42.571 244.778 43.0114 245.208 43.3097C245.644 43.6032 246.196 43.75 246.863 43.75ZM259.099 45.2273C258.076 45.2273 257.195 44.9858 256.457 44.5028C255.718 44.0199 255.15 43.3546 254.752 42.5071C254.354 41.6596 254.156 40.6913 254.156 39.6023C254.156 38.4943 254.359 37.5166 254.766 36.669C255.178 35.8168 255.751 35.1515 256.485 34.6733C257.224 34.1903 258.085 33.9489 259.07 33.9489C259.837 33.9489 260.529 34.0909 261.144 34.375C261.76 34.6591 262.264 35.0568 262.657 35.5682C263.05 36.0795 263.294 36.6761 263.388 37.358H261.712C261.585 36.8608 261.3 36.4205 260.86 36.0369C260.424 35.6487 259.837 35.4545 259.099 35.4545C258.445 35.4545 257.872 35.625 257.38 35.9659C256.892 36.3021 256.511 36.7779 256.237 37.3935C255.967 38.0043 255.832 38.7216 255.832 39.5455C255.832 40.3883 255.964 41.1222 256.229 41.7472C256.499 42.3722 256.878 42.8575 257.366 43.2031C257.858 43.5488 258.436 43.7216 259.099 43.7216C259.534 43.7216 259.93 43.6458 260.285 43.4943C260.64 43.3428 260.941 43.125 261.187 42.8409C261.433 42.5568 261.608 42.2159 261.712 41.8182H263.388C263.294 42.4621 263.059 43.0421 262.685 43.5582C262.316 44.0696 261.826 44.4768 261.215 44.7798C260.609 45.0781 259.904 45.2273 259.099 45.2273ZM270.583 34.0909V35.5114H264.93V34.0909H270.583ZM266.577 31.4773H268.254V41.875C268.254 42.3485 268.322 42.7036 268.46 42.9403C268.602 43.1723 268.781 43.3286 268.999 43.4091C269.222 43.4848 269.456 43.5227 269.702 43.5227C269.887 43.5227 270.039 43.5133 270.157 43.4943C270.275 43.4706 270.37 43.4517 270.441 43.4375L270.782 44.9432C270.668 44.9858 270.51 45.0284 270.306 45.071C270.103 45.1184 269.844 45.142 269.532 45.142C269.058 45.142 268.594 45.0402 268.14 44.8366C267.69 44.633 267.316 44.3229 267.018 43.9062C266.724 43.4896 266.577 42.964 266.577 42.3295V31.4773ZM277.419 45.2273C276.434 45.2273 275.57 44.9929 274.827 44.5241C274.088 44.0554 273.51 43.3996 273.094 42.5568C272.682 41.714 272.476 40.7292 272.476 39.6023C272.476 38.4659 272.682 37.474 273.094 36.6264C273.51 35.7789 274.088 35.1207 274.827 34.652C275.57 34.1832 276.434 33.9489 277.419 33.9489C278.404 33.9489 279.266 34.1832 280.004 34.652C280.748 35.1207 281.325 35.7789 281.737 36.6264C282.154 37.474 282.362 38.4659 282.362 39.6023C282.362 40.7292 282.154 41.714 281.737 42.5568C281.325 43.3996 280.748 44.0554 280.004 44.5241C279.266 44.9929 278.404 45.2273 277.419 45.2273ZM277.419 43.7216C278.167 43.7216 278.783 43.5298 279.266 43.1463C279.749 42.7628 280.106 42.2585 280.338 41.6335C280.57 41.0085 280.686 40.3314 280.686 39.6023C280.686 38.8731 280.57 38.1937 280.338 37.5639C280.106 36.9342 279.749 36.4252 279.266 36.0369C278.783 35.6487 278.167 35.4545 277.419 35.4545C276.671 35.4545 276.055 35.6487 275.572 36.0369C275.089 36.4252 274.732 36.9342 274.5 37.5639C274.268 38.1937 274.152 38.8731 274.152 39.6023C274.152 40.3314 274.268 41.0085 274.5 41.6335C274.732 42.2585 275.089 42.7628 275.572 43.1463C276.055 43.5298 276.671 43.7216 277.419 43.7216ZM292.648 36.5341L291.142 36.9602C291.048 36.7093 290.908 36.4654 290.723 36.2287C290.543 35.9872 290.297 35.7884 289.985 35.6321C289.672 35.4759 289.272 35.3977 288.784 35.3977C288.117 35.3977 287.56 35.5516 287.115 35.8594C286.675 36.1624 286.455 36.5483 286.455 37.017C286.455 37.4337 286.606 37.7628 286.909 38.0043C287.212 38.2457 287.686 38.447 288.33 38.608L289.949 39.0057C290.925 39.2424 291.651 39.6046 292.13 40.0923C292.608 40.5753 292.847 41.1979 292.847 41.9602C292.847 42.5852 292.667 43.1439 292.307 43.6364C291.952 44.1288 291.455 44.517 290.816 44.8011C290.176 45.0852 289.433 45.2273 288.586 45.2273C287.473 45.2273 286.552 44.9858 285.823 44.5028C285.094 44.0199 284.632 43.3144 284.438 42.3864L286.029 41.9886C286.18 42.5758 286.467 43.0161 286.888 43.3097C287.314 43.6032 287.871 43.75 288.557 43.75C289.338 43.75 289.959 43.5843 290.418 43.2528C290.882 42.9167 291.114 42.5142 291.114 42.0455C291.114 41.6667 290.981 41.3494 290.716 41.0938C290.451 40.8333 290.044 40.6392 289.495 40.5114L287.676 40.0852C286.677 39.8485 285.944 39.4815 285.475 38.9844C285.011 38.4825 284.779 37.8551 284.779 37.1023C284.779 36.4867 284.952 35.9422 285.297 35.4688C285.648 34.9953 286.123 34.6236 286.725 34.3537C287.331 34.0838 288.017 33.9489 288.784 33.9489C289.864 33.9489 290.712 34.1856 291.327 34.6591C291.947 35.1326 292.388 35.7576 292.648 36.5341Z" fill="black"/>
</svg>
